<svg xmlns="http://www.w3.org/2000/svg" width="172.113" height="182.68" viewBox="0 0 172.113 182.68"><g transform="translate(-355.933 -897.484) rotate(-7)"><path d="M0,0,137.071,1.483c5.353.058,9.739,3.914,9.8,8.613l1.167,94.749c.077,6.276-5.655,11.3-12.8,11.224L1.412,114.621Z" transform="translate(236.268 996.36) rotate(-5.024)" fill="#4e2a0e"/><g transform="translate(264.952 943.544)"><path d="M6.04,0,48.308.456c3.372.036,6.135,2.466,6.171,5.426l1.012,82.46c.036,2.96-2.668,5.33-6.04,5.294L7.184,93.181c-3.372-.036-6.135-2.466-6.171-5.426L0,5.295C-.036,2.334,2.668-.036,6.04,0Z" transform="translate(0 4.843) rotate(-5.007)" fill="#8abb2a"/><path d="M7.743,0l33.03.356C45.1.4,48.637,3.517,48.684,7.312l.869,70.78c.047,3.795-3.42,6.833-7.742,6.787L8.78,84.522C4.458,84.476.916,81.362.869,77.567L0,6.787C-.046,2.992,3.42-.046,7.743,0Z" transform="translate(3.34 8.946) rotate(-5.007)" fill="#248332"/><ellipse cx="14.925" cy="13.077" rx="14.925" ry="13.077" transform="translate(16.801 35.985)" fill="#8abb2a"/></g><g transform="translate(273.527 954.789) rotate(-9)"><path d="M8.008.81,50.188,0c3.365-.065,6.04,2.289,5.976,5.256l-1.8,82.656c-.065,2.967-2.845,5.425-6.209,5.489l-42.18.809C2.612,94.276-.063,91.923,0,88.956L1.8,6.3C1.863,3.332,4.643.875,8.008.81Z" transform="translate(14.721 0) rotate(8.989)" fill="#8abb2a"/><path d="M9.5.634,42.465,0c4.314-.083,7.743,2.934,7.661,6.738L48.583,77.687c-.083,3.8-3.647,6.954-7.96,7.037l-32.961.632C3.349,85.439-.081,82.422,0,78.619L1.544,7.671C1.627,3.867,5.191.716,9.5.634Z" transform="translate(17.011 4.845) rotate(8.989)" fill="#248332"/><ellipse cx="14.925" cy="13.077" rx="14.925" ry="13.077" transform="translate(20.173 37.839)" fill="#8abb2a"/></g><g transform="translate(293.869 960.447)"><path d="M8.719,1.119,50.777,0c3.355-.089,6,2.252,5.914,5.229L54.21,88.158c-.089,2.977-2.881,5.462-6.236,5.551L5.916,94.826c-3.355.089-6-2.252-5.914-5.229L2.483,6.67C2.572,3.693,5.364,1.208,8.719,1.119Z" transform="translate(20.698 0) rotate(12.607)" fill="#8abb2a"/><path d="M10.126.875,42.993,0c4.3-.114,7.7,2.887,7.581,6.7l-2.129,71.18c-.114,3.816-3.693,7-7.994,7.117l-32.866.872c-4.3.114-7.7-2.887-7.581-6.7L2.132,7.992C2.246,4.176,5.825.99,10.126.875Z" transform="translate(22.705 5.035) rotate(12.607)" fill="#248332"/><ellipse cx="14.925" cy="13.077" rx="14.925" ry="13.077" transform="translate(23.087 39.381)" fill="#8abb2a"/></g><path d="M0,0H135.744a15.011,15.011,0,0,1,15.011,15.011V90.125A24.371,24.371,0,0,1,126.384,114.5H0a0,0,0,0,1,0,0V0A0,0,0,0,1,0,0Z" transform="translate(244.024 1003.163)" fill="#f77e0b"/><path d="M236.268,1030.811l7.756,6.208v114.5l-7.756-6.209Z" transform="translate(0 -34.229)" fill="#ce6a0a"/></g></svg>